<svg xmlns="http://www.w3.org/2000/svg" xmlns:xlink="http://www.w3.org/1999/xlink" width="1024" height="1024" viewBox="0 0 1024 1024"><defs><clipPath id="b"><rect width="1024" height="1024"/></clipPath></defs><g id="a" clip-path="url(#b)"><g transform="translate(0.003 -0.126)"><path d="M375.7,824.44c-61.529,0-111.916-.01-158.572-.033-1.879-.053-3.817-.06-5.465-.06l-1.543,0h-1.457a96.723,96.723,0,0,1-14.535-.773c-4.371-.05-8.819-.2-13-.339a15.691,15.691,0,0,0-5.715-.773c-.326,0-.658,0-.98,0h-.084c-.36,0-.713.005-1.063.005a17.58,17.58,0,0,1-5.078-.538,9.194,9.194,0,0,0-3.556-.457h-.49c-1.753,0-3.3-.065-4.465-.863-1.847-.039-3.688-.178-5.57-.329a7.269,7.269,0,0,0-3.732-.823,6.653,6.653,0,0,1-3.678-.848,14.855,14.855,0,0,0-1.553-.145,6.2,6.2,0,0,1-3.446-.855c-8.184-1.369-18.1-4.707-27.59-8.11a14.187,14.187,0,0,1-3.955-1.577,13.191,13.191,0,0,0-4.045-1.573c-1.038-.511-2.065-1.011-3.057-1.495l-.1-.047-.005,0A147.912,147.912,0,0,1,87.7,796.607a190.113,190.113,0,0,1-16.8-11.385,125.245,125.245,0,0,1-15.228-13.6,3.308,3.308,0,0,1-2-2l-.391-.388c-2.994-2.975-6.09-6.051-8.919-9.292a10.575,10.575,0,0,0-2.266-2.978,9.777,9.777,0,0,1-2.424-3.342c-7.687-8.922-13.732-20.309-18.59-29.459a19.248,19.248,0,0,0-1.755-4.1,22.888,22.888,0,0,1-1.605-3.557,178.444,178.444,0,0,1-10.28-32.043,255.19,255.19,0,0,1-4.971-33.408,28.9,28.9,0,0,1-.458-5.332,28.342,28.342,0,0,0-.5-5.558C.653,620.007.682,599.4.71,579.478v-.009c.013-8.824.026-17.949-.039-26.9a4.477,4.477,0,0,1-.41-2.41c-.295-68.5-.274-138.084-.255-205.382v-.157c.008-26.367.016-53.632,0-80.46,0-5.939.014-12.96.12-20a12.662,12.662,0,0,0,.58-2c.005-2.74,0-5.5,0-8.176C.7,226.5.683,218.764.882,211.157c0-31.319,2.8-57.134,8.56-78.92a171.01,171.01,0,0,1,11.28-30.44A166.791,166.791,0,0,1,38.557,72.381,173.739,173.739,0,0,1,89.8,27.059a167.614,167.614,0,0,1,31.335-14.122,193.7,193.7,0,0,1,29.114-7.38,270.194,270.194,0,0,1,29.886-3.45,192.488,192.488,0,0,1,19.726-.978c5.1-.08,10.363-.164,15.274-.553h.051c67.131-.221,136.547-.45,206.6-.45,36.635,0,70.115.062,102.353.191,6.523.023,13.087.038,19.434.053h.027c30.762.073,59.818.142,90.539.966a349.646,349.646,0,0,1,38.122,3.8,188.115,188.115,0,0,1,37,9.7A168,168,0,0,1,737.765,28.6a173.57,173.57,0,0,1,47.094,41.89,169.162,169.162,0,0,1,17.033,26.722,172.639,172.639,0,0,1,8.9,20.5,198.246,198.246,0,0,1,6.332,21.439c3.151,14.212,5.179,30.145,6.2,48.707.878,15.963.936,31.768.92,49.293.018,107.157.031,233.845,0,361,0,13.171-.17,23.237-.55,32.639a45.245,45.245,0,0,0-.442,7.009,38.432,38.432,0,0,1-.7,8.351,205.709,205.709,0,0,1-3.2,28,185.415,185.415,0,0,1-12.66,43.351,167.747,167.747,0,0,1-23.31,38.649,15,15,0,0,1-2.664,3.255,13.262,13.262,0,0,0-2.8,3.555c-8.036,8.551-13,13.187-16.04,15.93a17.244,17.244,0,0,0-3.5,2.8,18.888,18.888,0,0,1-3.249,2.662,205.791,205.791,0,0,1-20.07,13.63,59.15,59.15,0,0,0-6.283,3.332,42.354,42.354,0,0,1-8.647,4.2,132.138,132.138,0,0,1-18.814,7.336l-.023.008c-2.278.751-4.633,1.527-7.163,2.416a31.3,31.3,0,0,0-5.03,1.118,25.093,25.093,0,0,1-6.447,1.222h-.082c-.9.833-2.384.881-3.695.924-.465.015-.9.03-1.306.076-.886.8-2.256.852-3.582.9h-.008c-.509.019-.99.037-1.43.1a7.767,7.767,0,0,1-4.22.859,8.212,8.212,0,0,0-4.2.812l-1.036.062-.115.007c-1.778.108-3.616.219-5.439.261a14.211,14.211,0,0,1-5.748.888c-.538,0-1.1-.009-1.6-.017s-1.051-.017-1.593-.017a14.268,14.268,0,0,0-5.467.8c-1.966.136-4.047.157-6.059.177a62.139,62.139,0,0,0-9.942.623c-8.654.317-17.378.344-25.572.344h-6.092c-2.29,0-5.307,0-8.336.018-33.217,0-67.038,0-99.745.006h-5.968C450.545,824.436,412.12,824.44,375.7,824.44ZM619.824,657.823c.493,0,.908.017,1.307.054a4.5,4.5,0,0,1,.943.459,2.315,2.315,0,0,0,1.122.433,1.505,1.505,0,0,0,1-.463,11.791,11.791,0,0,1,4.007-.49h1.02a18,18,0,0,0,2.453-.123,12.133,12.133,0,0,1,3.381-1.291,13.259,13.259,0,0,0,3.119-1.139c9.091-3.784,16.325-12.639,18.88-23.11a34.993,34.993,0,0,0,.2-16.7,34.634,34.634,0,0,0-7.583-14.84c-3.637-3.665-7.369-7.382-10.978-10.976l-.052-.052-.006-.006c-6.736-6.709-13.7-13.646-20.374-20.566-17.221-17.184-34.6-34.581-51.405-51.405-29.175-29.207-59.344-59.408-89.185-88.995a2.176,2.176,0,0,0-.479-.058c-1.024,0-1.449.884-1.9,1.819a4.179,4.179,0,0,1-1.221,1.738c-4.3,7.1-6.171,14.344-7.65,23.04a127.673,127.673,0,0,0,.323,24.867,113.408,113.408,0,0,0,5.437,24.132l.038.262a8.379,8.379,0,0,0,1.162,3.738,180.4,180.4,0,0,0,8.08,21c.911,2.71,2.693,4.412,4.579,6.214.641.613,1.3,1.245,1.951,1.935,23.691,23.636,47.622,47.573,70.764,70.722,9.99,9.993,21.314,21.32,32.255,32.258l.985.988c3.767,3.776,7.662,7.682,11.6,11.422a21.972,21.972,0,0,1,3.954,1.873c2.039,1.133,4.145,2.3,6.338,2.3.082,0,.166,0,.248-.005a6.152,6.152,0,0,0,3.777.987c.307,0,.61-.007.932-.015h.036C619.168,657.831,619.5,657.823,619.824,657.823ZM200.612,166.087a36.609,36.609,0,0,0-11.541,1.82,31.827,31.827,0,0,0-6.533,2.964,32.987,32.987,0,0,0-5.68,4.295,34.21,34.21,0,0,0-8.087,11.721,30.375,30.375,0,0,0-2.531,10.443,64.33,64.33,0,0,0,.311,10.826,64.541,64.541,0,0,0,2.974,8.37,22.235,22.235,0,0,0,4.977,7.29c17.6,17.582,35.465,35.421,52.741,52.673l1.538,1.535c43.254,43.193,87.98,87.857,132.3,132.192a3.168,3.168,0,0,1,1.21,1.94l-.36.81c-38.91,38.78-78.318,78.2-116.429,116.331l-.349.349c-23.03,23.04-46.845,46.865-70.272,70.27a32.7,32.7,0,0,0-7.1,12.03c-2.1,5.169-1.842,10.866-1.588,16.376l0,.042q.018.4.036.792a32.656,32.656,0,0,0,2.588,8.961,34.81,34.81,0,0,0,4.959,7.957,33.422,33.422,0,0,0,6.9,6.305,35.107,35.107,0,0,0,19.4,5.7c1.315,0,2.607-.035,3.975-.072l1.077-.029h.093c3.03,0,6.907-1.433,9.946-2.681,5.511-2.15,9.324-6.1,13.36-10.289l.01-.011c.709-.736,1.442-1.5,2.18-2.24,45.188-45.138,90.931-90.93,135.169-135.214l.145-.145.212-.212c35.831-35.869,72.882-72.959,109.425-109.489,58.781-58.791,118-118.005,176-176a4.686,4.686,0,0,1,1.277-2.267,4.943,4.943,0,0,0,1.293-2.233,36.666,36.666,0,0,0,3.873-16.486,35.137,35.137,0,0,0-4.063-16.553,31.153,31.153,0,0,0-8.5-10.314,36.654,36.654,0,0,0-11.864-6.226,39.239,39.239,0,0,0-10.623-1.474,35.882,35.882,0,0,0-12.391,2.15,31.73,31.73,0,0,0-10.806,6.6c-27.465,27.477-55.942,55.954-81.067,81.079l-.7.7c-34.492,34.492-70.158,70.158-105.212,105.24l-.76.37a2.957,2.957,0,0,1-1.96-1.17c-3.134-3.161-6.366-6.377-9.492-9.487l-.011-.011c-5.943-5.913-12.086-12.023-17.9-18.1l-45.5-45.5-10.4-10.4-93.6-93.6c-.916-.937-1.808-1.875-2.67-2.783-4.924-5.179-9.574-10.071-16.71-12.707A36.128,36.128,0,0,0,200.612,166.087Z" transform="translate(99.868 99.843)"/></g></g></svg>